# xmcd
#
# Track frame offsets: 
#        150
#        14650
#        28550
#        42760
#        60940
#        75175
#        88020
#        100132
#        114237
#        126943
#        135810
#        146550
#        159306
#        173295
#        187170
#        200970
#        213266
#        226255
#        239850
#        253219
#        267333
#        279685
#
# Disc length: 3901 seconds
#
# Revision: 1
# Processed by: cddbd v1.5.2PL0 Copyright (c) Steve Scherf et al.
# Submitted via: ExactAudioCopy v1.0b3
#
DISCID=2e0f3b16
DTITLE=Various Artist - Bebop CD025  Charlie Parker 1947
DYEAR=1947
DGENRE=Jazz
TTITLE0=Earl Coleman - Charlie Parker Quartet - This Is Always
TTITLE1=Earl Coleman - Charlie Parker Quartet - Dark Shadows
TTITLE2=Earl Coleman - Charlie Parker Quartet - This Is Always
TTITLE3=Earl Coleman - Charlie Parker Quartet - Dark Shadows
TTITLE4=Earl Coleman - Charlie Parker Quartet - Dark Shadows
TTITLE5=Earl Coleman - Charlie Parker Quartet - Bird's Nest
TTITLE6=Earl Coleman - Charlie Parker Quartet - Bird's Nest
TTITLE7=Earl Coleman - Charlie Parker Quartet - Cool Blues
TTITLE8=Earl Coleman - Charlie Parker Quartet - Bird's Nest
TTITLE9=Earl Coleman - Charlie Parker Quartet - Cool Blues (aka Hot Bl
TTITLE9=ues)
TTITLE10=Earl Coleman - Charlie Parker Quartet - Cool Blues (aka Blowt
TTITLE10=op Blues)
TTITLE11=Earl Coleman - Charlie Parker Quartet - Cool Blues
TTITLE12=Charlie Parker's New Stars - Relaxin' At The Camarillo
TTITLE13=Charlie Parker's New Stars - Relaxin' At The Camarillo
TTITLE14=Charlie Parker's New Stars - Cheers
TTITLE15=Charlie Parker's New Stars - Carvin' The Bird
TTITLE16=Charlie Parker's New Stars - Stupendous
TTITLE17=Charlie Parker's New Stars - Relaxin' At The Camarillo
TTITLE18=Charlie Parker's New Stars - Relaxin' At The Camarillo
TTITLE19=Charlie Parker's New Stars - Cheers
TTITLE20=Charlie Parker's New Stars - Carvin' The Bird
TTITLE21=Charlie Parker's New Stars - Stupendous (aka Surprising)
EXTD=YEAR: 2008
EXTT0=
EXTT1=
EXTT2=
EXTT3=
EXTT4=
EXTT5=
EXTT6=
EXTT7=
EXTT8=
EXTT9=
EXTT10=
EXTT11=
EXTT12=
EXTT13=
EXTT14=
EXTT15=
EXTT16=
EXTT17=
EXTT18=
EXTT19=
EXTT20=
EXTT21=
PLAYORDER=
